<svg width="301" height="358" viewBox="0 0 301 358" fill="none" xmlns="http://www.w3.org/2000/svg">
<g filter="url(#filter0_d_1_220)">
<path d="M221.754 221.64L258.979 243.163" stroke="#DB4933" stroke-width="25" stroke-linecap="round"/>
</g>
<g filter="url(#filter1_d_1_220)">
<g filter="url(#filter2_d_1_220)">
<rect width="27.1831" height="103.102" rx="13.5916" transform="matrix(0.805675 0.571978 -0.633496 0.789774 249.21 32.8309)" fill="#74221B"/>
<rect width="26.9241" height="122.455" rx="13.4621" transform="matrix(1.00401 -0.0167372 -0.047596 0.995725 200.654 5.30817)" fill="#74221B"/>
</g>
<g filter="url(#filter3_d_1_220)">
<rect width="26.6546" height="99.5221" rx="13.3273" transform="matrix(0.723609 -0.672417 0.734375 0.696907 18.3099 49.1656)" fill="#74221B"/>
<rect width="28.4376" height="98.1122" rx="14.2188" transform="matrix(0.993389 -0.114493 0.183284 0.984233 61.1756 12.3995)" fill="#74221B"/>
</g>
<g filter="url(#filter4_d_1_220)">
<path d="M48.1956 236.61L81.1898 221.178" stroke="#DB4933" stroke-width="25" stroke-linecap="round"/>
</g>
<g filter="url(#filter5_d_1_220)">
<path d="M258.292 145.695C258.292 123.692 246.743 102.591 226.186 87.0327C205.629 71.4746 177.748 42.9227 148.676 42.9227C119.605 42.9227 91.7235 71.4746 71.1666 87.0327C50.6097 102.591 39.0609 123.692 39.0609 145.695L148.676 145.695H258.292Z" fill="#DB4933"/>
</g>
<g filter="url(#filter6_d_1_220)">
<path d="M5.79537 115.484C4.16493 114.429 4.63552 112.074 6.50838 111.917L44.8199 108.689C45.8629 108.602 46.8623 109.308 47.1192 110.316L55.683 143.882C56.1228 145.606 54.2248 146.829 52.6707 145.824L5.79537 115.484Z" fill="#DB4933"/>
</g>
<g filter="url(#filter7_d_1_220)">
<path d="M249.766 144.461C248.342 145.424 246.447 144.261 246.66 142.556L250.54 111.538C250.666 110.537 251.516 109.786 252.525 109.786L294.476 109.786C296.448 109.786 297.23 112.338 295.597 113.443L249.766 144.461Z" fill="#DB4933"/>
</g>
<g filter="url(#filter8_d_1_220)">
<g filter="url(#filter9_d_1_220)">
<path d="M63.4199 226.106C63.4199 220.099 67.0031 214.672 72.5265 212.312L144.306 181.644C148.07 180.036 152.328 180.036 156.092 181.644L227.871 212.312C233.395 214.672 236.978 220.099 236.978 226.106V298.674C236.978 304.43 233.684 309.678 228.502 312.182L156.723 346.849C152.601 348.84 147.797 348.84 143.675 346.849L71.8963 312.182C66.7134 309.678 63.4199 304.43 63.4199 298.674V226.106Z" fill="#DB4933"/>
<path d="M231.478 226.106V298.674C231.478 302.32 229.392 305.644 226.11 307.229L154.331 341.897C151.72 343.157 148.677 343.157 146.067 341.897L74.2883 307.229C71.0058 305.644 68.9199 302.32 68.9199 298.674V226.106C68.9199 222.302 71.1892 218.864 74.6875 217.37L146.466 186.702C148.851 185.683 151.547 185.683 153.931 186.702L225.71 217.37C229.209 218.864 231.478 222.302 231.478 226.106Z" stroke="#74221B" stroke-width="11"/>
</g>
<rect width="34.3927" height="14.3138" transform="matrix(0.924681 -0.380742 0.52846 0.848958 75.4599 210.894)" fill="#DA4832"/>
<rect width="43.9367" height="14.3678" transform="matrix(0.917879 0.39686 -0.547128 0.837049 186.448 193.998)" fill="#DA4832"/>
<line x1="6" y1="-6" x2="86.7039" y2="-6" transform="matrix(0.92863 0.371007 -0.517002 0.855984 66.4648 222.464)" stroke="#74221B" stroke-width="12" stroke-linecap="round"/>
<line x1="6" y1="-6" x2="86.7039" y2="-6" transform="matrix(0.92863 -0.371007 0.517002 0.855984 150.199 257.134)" stroke="#74221B" stroke-width="12" stroke-linecap="round"/>
</g>
<g filter="url(#filter10_d_1_220)">
<ellipse cx="147.154" cy="128.979" rx="30.4488" ry="24.1452" fill="white"/>
<path d="M167.603 128.979C167.603 134.752 160.735 143.124 147.154 143.124C133.573 143.124 126.705 134.752 126.705 128.979C126.705 123.205 133.573 114.833 147.154 114.833C160.735 114.833 167.603 123.205 167.603 128.979Z" stroke="#74221B" stroke-width="20"/>
</g>
<g filter="url(#filter11_d_1_220)">
<ellipse cx="41.867" cy="24.7643" rx="41.867" ry="24.7643" transform="matrix(-1 0 0 1 191.305 174.174)" fill="#DB4933"/>
<path d="M112.571 198.938C112.571 203.294 115.587 208.128 122.379 212.145C129.059 216.097 138.614 218.702 149.438 218.702C160.261 218.702 169.816 216.097 176.497 212.145C183.288 208.128 186.305 203.294 186.305 198.938C186.305 194.581 183.288 189.747 176.497 185.73C169.816 181.779 160.261 179.174 149.438 179.174C138.614 179.174 129.059 181.779 122.379 185.73C115.587 189.747 112.571 194.581 112.571 198.938Z" stroke="white" stroke-width="10"/>
</g>
<g filter="url(#filter12_d_1_220)">
<mask id="path-20-inside-1_1_220" fill="white">
<path fill-rule="evenodd" clip-rule="evenodd" d="M106.557 207.605C69.2801 207.605 39.0609 191.071 39.0609 170.675C39.0609 150.279 69.2801 133.745 106.557 133.745C121.894 133.745 136.036 136.544 147.371 141.259C148.694 141.809 150.182 141.809 151.504 141.259C162.839 136.544 176.981 133.745 192.318 133.745C229.595 133.745 259.814 150.279 259.814 170.675C259.814 191.071 229.595 207.605 192.318 207.605C176.981 207.605 162.839 204.807 151.504 200.092C150.182 199.541 148.694 199.541 147.371 200.092C136.036 204.807 121.894 207.605 106.557 207.605Z"/>
</mask>
<path fill-rule="evenodd" clip-rule="evenodd" d="M106.557 207.605C69.2801 207.605 39.0609 191.071 39.0609 170.675C39.0609 150.279 69.2801 133.745 106.557 133.745C121.894 133.745 136.036 136.544 147.371 141.259C148.694 141.809 150.182 141.809 151.504 141.259C162.839 136.544 176.981 133.745 192.318 133.745C229.595 133.745 259.814 150.279 259.814 170.675C259.814 191.071 229.595 207.605 192.318 207.605C176.981 207.605 162.839 204.807 151.504 200.092C150.182 199.541 148.694 199.541 147.371 200.092C136.036 204.807 121.894 207.605 106.557 207.605Z" fill="#DB4933"/>
<path d="M151.504 200.092L156.113 189.012L151.504 200.092ZM147.371 200.092L142.762 189.012L147.371 200.092ZM147.371 141.259L151.98 130.179L147.371 141.259ZM151.504 141.259L156.113 152.339L151.504 141.259ZM27.0609 170.675C27.0609 187.304 39.2185 199.737 53.0703 207.316C67.3677 215.139 86.3008 219.605 106.557 219.605V195.605C89.5367 195.605 74.7215 191.805 64.5901 186.261C54.013 180.474 51.0609 174.442 51.0609 170.675H27.0609ZM106.557 121.745C86.3008 121.745 67.3677 126.212 53.0703 134.035C39.2185 141.613 27.0609 154.046 27.0609 170.675H51.0609C51.0609 166.908 54.013 160.876 64.5901 155.089C74.7215 149.546 89.5367 145.745 106.557 145.745V121.745ZM151.98 130.179C139.015 124.786 123.281 121.745 106.557 121.745V145.745C120.507 145.745 133.058 148.302 142.762 152.339L151.98 130.179ZM192.318 121.745C175.594 121.745 159.86 124.786 146.895 130.179L156.113 152.339C165.817 148.302 178.368 145.745 192.318 145.745V121.745ZM271.814 170.675C271.814 154.046 259.657 141.613 245.805 134.035C231.507 126.212 212.574 121.745 192.318 121.745V145.745C209.338 145.745 224.154 149.546 234.285 155.089C244.862 160.876 247.814 166.908 247.814 170.675H271.814ZM192.318 219.605C212.574 219.605 231.507 215.139 245.805 207.316C259.657 199.737 271.814 187.304 271.814 170.675H247.814C247.814 174.442 244.862 180.474 234.285 186.261C224.154 191.805 209.338 195.605 192.318 195.605V219.605ZM146.895 211.171C159.86 216.564 175.594 219.605 192.318 219.605V195.605C178.368 195.605 165.817 193.049 156.113 189.012L146.895 211.171ZM106.557 219.605C123.281 219.605 139.015 216.564 151.98 211.171L142.762 189.012C133.058 193.049 120.507 195.605 106.557 195.605V219.605ZM156.113 189.012C151.84 187.234 147.035 187.234 142.762 189.012L151.98 211.171C150.352 211.848 148.523 211.848 146.895 211.171L156.113 189.012ZM142.762 152.339C147.035 154.116 151.84 154.116 156.113 152.339L146.895 130.179C148.523 129.503 150.352 129.503 151.98 130.179L142.762 152.339Z" fill="white" mask="url(#path-20-inside-1_1_220)"/>
</g>
<g filter="url(#filter13_d_1_220)">
<ellipse cx="83.2117" cy="119.692" rx="53.2853" ry="43.3375" fill="white"/>
<path d="M131.497 119.692C131.497 139.949 110.894 158.03 83.2117 158.03C55.5293 158.03 34.9263 139.949 34.9263 119.692C34.9263 99.4348 55.5293 81.3546 83.2117 81.3546C110.894 81.3546 131.497 99.4348 131.497 119.692Z" stroke="#74221B" stroke-width="10"/>
</g>
<g filter="url(#filter14_d_1_220)">
<ellipse cx="215.664" cy="118.454" rx="53.2853" ry="43.3375" fill="white"/>
<path d="M263.949 118.454C263.949 138.711 243.346 156.791 215.664 156.791C187.981 156.791 167.378 138.711 167.378 118.454C167.378 98.1966 187.981 80.1163 215.664 80.1163C243.346 80.1163 263.949 98.1966 263.949 118.454Z" stroke="#74221B" stroke-width="10"/>
</g>
<g filter="url(#filter15_d_1_220)">
<ellipse cx="149.438" cy="38.589" rx="25.1202" ry="20.4305" fill="#74221B"/>
</g>
<g filter="url(#filter16_d_1_220)">
<ellipse cx="125.079" cy="162.41" rx="20.5529" ry="16.7159" fill="#DB4933"/>
<path d="M142.632 162.41C142.632 169.436 135.382 176.126 125.079 176.126C114.775 176.126 107.526 169.436 107.526 162.41C107.526 155.385 114.775 148.695 125.079 148.695C135.382 148.695 142.632 155.385 142.632 162.41Z" stroke="#74221B" stroke-width="6"/>
</g>
<g filter="url(#filter17_d_1_220)">
<ellipse cx="93.8687" cy="130.836" rx="22.8366" ry="18.5732" fill="#74221B"/>
</g>
<g filter="url(#filter18_d_1_220)">
<ellipse cx="201.962" cy="129.598" rx="22.8366" ry="18.5732" fill="#74221B"/>
</g>
<g filter="url(#filter19_d_1_220)">
<ellipse cx="172.274" cy="162.41" rx="20.5529" ry="16.7159" fill="#DB4933"/>
<path d="M189.827 162.41C189.827 169.436 182.578 176.126 172.274 176.126C161.971 176.126 154.721 169.436 154.721 162.41C154.721 155.385 161.971 148.695 172.274 148.695C182.578 148.695 189.827 155.385 189.827 162.41Z" stroke="#74221B" stroke-width="6"/>
</g>
<ellipse cx="197.394" cy="133.312" rx="13.7019" ry="11.1439" fill="#FFFDFD"/>
<ellipse cx="98.436" cy="133.312" rx="13.7019" ry="11.1439" fill="white"/>
<g filter="url(#filter20_d_1_220)">
<ellipse cx="148.676" cy="130.836" rx="16.7468" ry="13.6204" fill="#DB4933"/>
</g>
<g filter="url(#filter21_d_1_220)">
<path d="M46.6731 238.561L66.4648 263.325" stroke="#DB4933" stroke-width="25" stroke-linecap="round"/>
</g>
</g>
<g filter="url(#filter22_d_1_220)">
<path d="M259.176 245.167L233.396 265.969" stroke="#DB4933" stroke-width="25" stroke-linecap="round"/>
</g>
<defs>
<filter id="filter0_d_1_220" x="204.16" y="210.338" width="72.4136" height="52.128" filterUnits="userSpaceOnUse" color-interpolation-filters="sRGB">
<feFlood flood-opacity="0" result="BackgroundImageFix"/>
<feColorMatrix in="SourceAlpha" type="matrix" values="0 0 0 0 0 0 0 0 0 0 0 0 0 0 0 0 0 0 127 0" result="hardAlpha"/>
<feOffset dy="4"/>
<feGaussianBlur stdDeviation="2"/>
<feComposite in2="hardAlpha" operator="out"/>
<feColorMatrix type="matrix" values="0 0 0 0 0 0 0 0 0 0 0 0 0 0 0 0 0 0 0.25 0"/>
<feBlend mode="normal" in2="BackgroundImageFix" result="effect1_dropShadow_1_220"/>
<feBlend mode="normal" in="SourceGraphic" in2="effect1_dropShadow_1_220" result="shape"/>
</filter>
<filter id="filter1_d_1_220" x="-3" y="0" width="308" height="358" filterUnits="userSpaceOnUse" color-interpolation-filters="sRGB">
<feFlood flood-opacity="0" result="BackgroundImageFix"/>
<feColorMatrix in="SourceAlpha" type="matrix" values="0 0 0 0 0 0 0 0 0 0 0 0 0 0 0 0 0 0 127 0" result="hardAlpha"/>
<feOffset dy="4"/>
<feGaussianBlur stdDeviation="2"/>
<feComposite in2="hardAlpha" operator="out"/>
<feColorMatrix type="matrix" values="0 0 0 0 0 0 0 0 0 0 0 0 0 0 0 0 0 0 0.25 0"/>
<feBlend mode="normal" in2="BackgroundImageFix" result="effect1_dropShadow_1_220"/>
<feBlend mode="normal" in="SourceGraphic" in2="effect1_dropShadow_1_220" result="shape"/>
</filter>
<filter id="filter2_d_1_220" x="185.525" y="5.08093" width="83.9555" height="129.935" filterUnits="userSpaceOnUse" color-interpolation-filters="sRGB">
<feFlood flood-opacity="0" result="BackgroundImageFix"/>
<feColorMatrix in="SourceAlpha" type="matrix" values="0 0 0 0 0 0 0 0 0 0 0 0 0 0 0 0 0 0 127 0" result="hardAlpha"/>
<feOffset dy="4"/>
<feGaussianBlur stdDeviation="2"/>
<feComposite in2="hardAlpha" operator="out"/>
<feColorMatrix type="matrix" values="0 0 0 0 0 0 0 0 0 0 0 0 0 0 0 0 0 0 0.25 0"/>
<feBlend mode="normal" in2="BackgroundImageFix" result="effect1_dropShadow_1_220"/>
<feBlend mode="normal" in="SourceGraphic" in2="effect1_dropShadow_1_220" result="shape"/>
</filter>
<filter id="filter3_d_1_220" x="20.0008" y="10.6759" width="89.0416" height="110.504" filterUnits="userSpaceOnUse" color-interpolation-filters="sRGB">
<feFlood flood-opacity="0" result="BackgroundImageFix"/>
<feColorMatrix in="SourceAlpha" type="matrix" values="0 0 0 0 0 0 0 0 0 0 0 0 0 0 0 0 0 0 127 0" result="hardAlpha"/>
<feOffset dy="4"/>
<feGaussianBlur stdDeviation="2"/>
<feComposite in2="hardAlpha" operator="out"/>
<feColorMatrix type="matrix" values="0 0 0 0 0 0 0 0 0 0 0 0 0 0 0 0 0 0 0.25 0"/>
<feBlend mode="normal" in2="BackgroundImageFix" result="effect1_dropShadow_1_220"/>
<feBlend mode="normal" in="SourceGraphic" in2="effect1_dropShadow_1_220" result="shape"/>
</filter>
<filter id="filter4_d_1_220" x="30.7669" y="209.678" width="67.8516" height="46.4335" filterUnits="userSpaceOnUse" color-interpolation-filters="sRGB">
<feFlood flood-opacity="0" result="BackgroundImageFix"/>
<feColorMatrix in="SourceAlpha" type="matrix" values="0 0 0 0 0 0 0 0 0 0 0 0 0 0 0 0 0 0 127 0" result="hardAlpha"/>
<feOffset dy="4"/>
<feGaussianBlur stdDeviation="2"/>
<feComposite in2="hardAlpha" operator="out"/>
<feColorMatrix type="matrix" values="0 0 0 0 0 0 0 0 0 0 0 0 0 0 0 0 0 0 0.25 0"/>
<feBlend mode="normal" in2="BackgroundImageFix" result="effect1_dropShadow_1_220"/>
<feBlend mode="normal" in="SourceGraphic" in2="effect1_dropShadow_1_220" result="shape"/>
</filter>
<filter id="filter5_d_1_220" x="35.0609" y="42.9227" width="227.231" height="110.772" filterUnits="userSpaceOnUse" color-interpolation-filters="sRGB">
<feFlood flood-opacity="0" result="BackgroundImageFix"/>
<feColorMatrix in="SourceAlpha" type="matrix" values="0 0 0 0 0 0 0 0 0 0 0 0 0 0 0 0 0 0 127 0" result="hardAlpha"/>
<feOffset dy="4"/>
<feGaussianBlur stdDeviation="2"/>
<feComposite in2="hardAlpha" operator="out"/>
<feColorMatrix type="matrix" values="0 0 0 0 0 0 0 0 0 0 0 0 0 0 0 0 0 0 0.25 0"/>
<feBlend mode="normal" in2="BackgroundImageFix" result="effect1_dropShadow_1_220"/>
<feBlend mode="normal" in="SourceGraphic" in2="effect1_dropShadow_1_220" result="shape"/>
</filter>
<filter id="filter6_d_1_220" x="0.801064" y="108.682" width="58.9464" height="45.5049" filterUnits="userSpaceOnUse" color-interpolation-filters="sRGB">
<feFlood flood-opacity="0" result="BackgroundImageFix"/>
<feColorMatrix in="SourceAlpha" type="matrix" values="0 0 0 0 0 0 0 0 0 0 0 0 0 0 0 0 0 0 127 0" result="hardAlpha"/>
<feOffset dy="4"/>
<feGaussianBlur stdDeviation="2"/>
<feComposite in2="hardAlpha" operator="out"/>
<feColorMatrix type="matrix" values="0 0 0 0 0 0 0 0 0 0 0 0 0 0 0 0 0 0 0.25 0"/>
<feBlend mode="normal" in2="BackgroundImageFix" result="effect1_dropShadow_1_220"/>
<feBlend mode="normal" in="SourceGraphic" in2="effect1_dropShadow_1_220" result="shape"/>
</filter>
<filter id="filter7_d_1_220" x="242.643" y="109.786" width="57.8367" height="43.0228" filterUnits="userSpaceOnUse" color-interpolation-filters="sRGB">
<feFlood flood-opacity="0" result="BackgroundImageFix"/>
<feColorMatrix in="SourceAlpha" type="matrix" values="0 0 0 0 0 0 0 0 0 0 0 0 0 0 0 0 0 0 127 0" result="hardAlpha"/>
<feOffset dy="4"/>
<feGaussianBlur stdDeviation="2"/>
<feComposite in2="hardAlpha" operator="out"/>
<feColorMatrix type="matrix" values="0 0 0 0 0 0 0 0 0 0 0 0 0 0 0 0 0 0 0.25 0"/>
<feBlend mode="normal" in2="BackgroundImageFix" result="effect1_dropShadow_1_220"/>
<feBlend mode="normal" in="SourceGraphic" in2="effect1_dropShadow_1_220" result="shape"/>
</filter>
<filter id="filter8_d_1_220" x="45.718" y="82.5457" width="208.962" height="275.454" filterUnits="userSpaceOnUse" color-interpolation-filters="sRGB">
<feFlood flood-opacity="0" result="BackgroundImageFix"/>
<feColorMatrix in="SourceAlpha" type="matrix" values="0 0 0 0 0 0 0 0 0 0 0 0 0 0 0 0 0 0 127 0" result="hardAlpha"/>
<feOffset dy="4"/>
<feGaussianBlur stdDeviation="2"/>
<feComposite in2="hardAlpha" operator="out"/>
<feColorMatrix type="matrix" values="0 0 0 0 0 0 0 0 0 0 0 0 0 0 0 0 0 0 0.25 0"/>
<feBlend mode="normal" in2="BackgroundImageFix" result="effect1_dropShadow_1_220"/>
<feBlend mode="normal" in="SourceGraphic" in2="effect1_dropShadow_1_220" result="shape"/>
</filter>
<filter id="filter9_d_1_220" x="59.4199" y="180.438" width="181.558" height="175.904" filterUnits="userSpaceOnUse" color-interpolation-filters="sRGB">
<feFlood flood-opacity="0" result="BackgroundImageFix"/>
<feColorMatrix in="SourceAlpha" type="matrix" values="0 0 0 0 0 0 0 0 0 0 0 0 0 0 0 0 0 0 127 0" result="hardAlpha"/>
<feOffset dy="4"/>
<feGaussianBlur stdDeviation="2"/>
<feComposite in2="hardAlpha" operator="out"/>
<feColorMatrix type="matrix" values="0 0 0 0 0 0 0 0 0 0 0 0 0 0 0 0 0 0 0.25 0"/>
<feBlend mode="normal" in2="BackgroundImageFix" result="effect1_dropShadow_1_220"/>
<feBlend mode="normal" in="SourceGraphic" in2="effect1_dropShadow_1_220" result="shape"/>
</filter>
<filter id="filter10_d_1_220" x="112.705" y="104.833" width="68.8975" height="56.2904" filterUnits="userSpaceOnUse" color-interpolation-filters="sRGB">
<feFlood flood-opacity="0" result="BackgroundImageFix"/>
<feColorMatrix in="SourceAlpha" type="matrix" values="0 0 0 0 0 0 0 0 0 0 0 0 0 0 0 0 0 0 127 0" result="hardAlpha"/>
<feOffset dy="4"/>
<feGaussianBlur stdDeviation="2"/>
<feComposite in2="hardAlpha" operator="out"/>
<feColorMatrix type="matrix" values="0 0 0 0 0 0 0 0 0 0 0 0 0 0 0 0 0 0 0.25 0"/>
<feBlend mode="normal" in2="BackgroundImageFix" result="effect1_dropShadow_1_220"/>
<feBlend mode="normal" in="SourceGraphic" in2="effect1_dropShadow_1_220" result="shape"/>
</filter>
<filter id="filter11_d_1_220" x="103.571" y="174.174" width="91.7341" height="57.5286" filterUnits="userSpaceOnUse" color-interpolation-filters="sRGB">
<feFlood flood-opacity="0" result="BackgroundImageFix"/>
<feColorMatrix in="SourceAlpha" type="matrix" values="0 0 0 0 0 0 0 0 0 0 0 0 0 0 0 0 0 0 127 0" result="hardAlpha"/>
<feOffset dy="4"/>
<feGaussianBlur stdDeviation="2"/>
<feComposite in2="hardAlpha" operator="out"/>
<feColorMatrix type="matrix" values="0 0 0 0 0 0 0 0 0 0 0 0 0 0 0 0 0 0 0.25 0"/>
<feBlend mode="normal" in2="BackgroundImageFix" result="effect1_dropShadow_1_220"/>
<feBlend mode="normal" in="SourceGraphic" in2="effect1_dropShadow_1_220" result="shape"/>
</filter>
<filter id="filter12_d_1_220" x="35.0609" y="133.745" width="228.753" height="81.86" filterUnits="userSpaceOnUse" color-interpolation-filters="sRGB">
<feFlood flood-opacity="0" result="BackgroundImageFix"/>
<feColorMatrix in="SourceAlpha" type="matrix" values="0 0 0 0 0 0 0 0 0 0 0 0 0 0 0 0 0 0 127 0" result="hardAlpha"/>
<feOffset dy="4"/>
<feGaussianBlur stdDeviation="2"/>
<feComposite in2="hardAlpha" operator="out"/>
<feColorMatrix type="matrix" values="0 0 0 0 0 0 0 0 0 0 0 0 0 0 0 0 0 0 0.25 0"/>
<feBlend mode="normal" in2="BackgroundImageFix" result="effect1_dropShadow_1_220"/>
<feBlend mode="normal" in="SourceGraphic" in2="effect1_dropShadow_1_220" result="shape"/>
</filter>
<filter id="filter13_d_1_220" x="25.9263" y="76.3546" width="114.571" height="94.675" filterUnits="userSpaceOnUse" color-interpolation-filters="sRGB">
<feFlood flood-opacity="0" result="BackgroundImageFix"/>
<feColorMatrix in="SourceAlpha" type="matrix" values="0 0 0 0 0 0 0 0 0 0 0 0 0 0 0 0 0 0 127 0" result="hardAlpha"/>
<feOffset dy="4"/>
<feGaussianBlur stdDeviation="2"/>
<feComposite in2="hardAlpha" operator="out"/>
<feColorMatrix type="matrix" values="0 0 0 0 0 0 0 0 0 0 0 0 0 0 0 0 0 0 0.25 0"/>
<feBlend mode="normal" in2="BackgroundImageFix" result="effect1_dropShadow_1_220"/>
<feBlend mode="normal" in="SourceGraphic" in2="effect1_dropShadow_1_220" result="shape"/>
</filter>
<filter id="filter14_d_1_220" x="158.378" y="75.1163" width="114.571" height="94.675" filterUnits="userSpaceOnUse" color-interpolation-filters="sRGB">
<feFlood flood-opacity="0" result="BackgroundImageFix"/>
<feColorMatrix in="SourceAlpha" type="matrix" values="0 0 0 0 0 0 0 0 0 0 0 0 0 0 0 0 0 0 127 0" result="hardAlpha"/>
<feOffset dy="4"/>
<feGaussianBlur stdDeviation="2"/>
<feComposite in2="hardAlpha" operator="out"/>
<feColorMatrix type="matrix" values="0 0 0 0 0 0 0 0 0 0 0 0 0 0 0 0 0 0 0.25 0"/>
<feBlend mode="normal" in2="BackgroundImageFix" result="effect1_dropShadow_1_220"/>
<feBlend mode="normal" in="SourceGraphic" in2="effect1_dropShadow_1_220" result="shape"/>
</filter>
<filter id="filter15_d_1_220" x="120.317" y="18.1584" width="58.2404" height="48.8611" filterUnits="userSpaceOnUse" color-interpolation-filters="sRGB">
<feFlood flood-opacity="0" result="BackgroundImageFix"/>
<feColorMatrix in="SourceAlpha" type="matrix" values="0 0 0 0 0 0 0 0 0 0 0 0 0 0 0 0 0 0 127 0" result="hardAlpha"/>
<feOffset dy="4"/>
<feGaussianBlur stdDeviation="2"/>
<feComposite in2="hardAlpha" operator="out"/>
<feColorMatrix type="matrix" values="0 0 0 0 0 0 0 0 0 0 0 0 0 0 0 0 0 0 0.25 0"/>
<feBlend mode="normal" in2="BackgroundImageFix" result="effect1_dropShadow_1_220"/>
<feBlend mode="normal" in="SourceGraphic" in2="effect1_dropShadow_1_220" result="shape"/>
</filter>
<filter id="filter16_d_1_220" x="100.526" y="145.695" width="49.1058" height="41.4318" filterUnits="userSpaceOnUse" color-interpolation-filters="sRGB">
<feFlood flood-opacity="0" result="BackgroundImageFix"/>
<feColorMatrix in="SourceAlpha" type="matrix" values="0 0 0 0 0 0 0 0 0 0 0 0 0 0 0 0 0 0 127 0" result="hardAlpha"/>
<feOffset dy="4"/>
<feGaussianBlur stdDeviation="2"/>
<feComposite in2="hardAlpha" operator="out"/>
<feColorMatrix type="matrix" values="0 0 0 0 0 0 0 0 0 0 0 0 0 0 0 0 0 0 0.25 0"/>
<feBlend mode="normal" in2="BackgroundImageFix" result="effect1_dropShadow_1_220"/>
<feBlend mode="normal" in="SourceGraphic" in2="effect1_dropShadow_1_220" result="shape"/>
</filter>
<filter id="filter17_d_1_220" x="67.0321" y="112.263" width="53.6731" height="45.1464" filterUnits="userSpaceOnUse" color-interpolation-filters="sRGB">
<feFlood flood-opacity="0" result="BackgroundImageFix"/>
<feColorMatrix in="SourceAlpha" type="matrix" values="0 0 0 0 0 0 0 0 0 0 0 0 0 0 0 0 0 0 127 0" result="hardAlpha"/>
<feOffset dy="4"/>
<feGaussianBlur stdDeviation="2"/>
<feComposite in2="hardAlpha" operator="out"/>
<feColorMatrix type="matrix" values="0 0 0 0 0 0 0 0 0 0 0 0 0 0 0 0 0 0 0.25 0"/>
<feBlend mode="normal" in2="BackgroundImageFix" result="effect1_dropShadow_1_220"/>
<feBlend mode="normal" in="SourceGraphic" in2="effect1_dropShadow_1_220" result="shape"/>
</filter>
<filter id="filter18_d_1_220" x="175.125" y="111.025" width="53.6731" height="45.1464" filterUnits="userSpaceOnUse" color-interpolation-filters="sRGB">
<feFlood flood-opacity="0" result="BackgroundImageFix"/>
<feColorMatrix in="SourceAlpha" type="matrix" values="0 0 0 0 0 0 0 0 0 0 0 0 0 0 0 0 0 0 127 0" result="hardAlpha"/>
<feOffset dy="4"/>
<feGaussianBlur stdDeviation="2"/>
<feComposite in2="hardAlpha" operator="out"/>
<feColorMatrix type="matrix" values="0 0 0 0 0 0 0 0 0 0 0 0 0 0 0 0 0 0 0.25 0"/>
<feBlend mode="normal" in2="BackgroundImageFix" result="effect1_dropShadow_1_220"/>
<feBlend mode="normal" in="SourceGraphic" in2="effect1_dropShadow_1_220" result="shape"/>
</filter>
<filter id="filter19_d_1_220" x="147.721" y="145.695" width="49.1058" height="41.4318" filterUnits="userSpaceOnUse" color-interpolation-filters="sRGB">
<feFlood flood-opacity="0" result="BackgroundImageFix"/>
<feColorMatrix in="SourceAlpha" type="matrix" values="0 0 0 0 0 0 0 0 0 0 0 0 0 0 0 0 0 0 127 0" result="hardAlpha"/>
<feOffset dy="4"/>
<feGaussianBlur stdDeviation="2"/>
<feComposite in2="hardAlpha" operator="out"/>
<feColorMatrix type="matrix" values="0 0 0 0 0 0 0 0 0 0 0 0 0 0 0 0 0 0 0.25 0"/>
<feBlend mode="normal" in2="BackgroundImageFix" result="effect1_dropShadow_1_220"/>
<feBlend mode="normal" in="SourceGraphic" in2="effect1_dropShadow_1_220" result="shape"/>
</filter>
<filter id="filter20_d_1_220" x="127.93" y="117.216" width="41.4936" height="35.2407" filterUnits="userSpaceOnUse" color-interpolation-filters="sRGB">
<feFlood flood-opacity="0" result="BackgroundImageFix"/>
<feColorMatrix in="SourceAlpha" type="matrix" values="0 0 0 0 0 0 0 0 0 0 0 0 0 0 0 0 0 0 127 0" result="hardAlpha"/>
<feOffset dy="4"/>
<feGaussianBlur stdDeviation="2"/>
<feComposite in2="hardAlpha" operator="out"/>
<feColorMatrix type="matrix" values="0 0 0 0 0 0 0 0 0 0 0 0 0 0 0 0 0 0 0.25 0"/>
<feBlend mode="normal" in2="BackgroundImageFix" result="effect1_dropShadow_1_220"/>
<feBlend mode="normal" in="SourceGraphic" in2="effect1_dropShadow_1_220" result="shape"/>
</filter>
<filter id="filter21_d_1_220" x="30.1727" y="226.06" width="52.7926" height="57.7653" filterUnits="userSpaceOnUse" color-interpolation-filters="sRGB">
<feFlood flood-opacity="0" result="BackgroundImageFix"/>
<feColorMatrix in="SourceAlpha" type="matrix" values="0 0 0 0 0 0 0 0 0 0 0 0 0 0 0 0 0 0 127 0" result="hardAlpha"/>
<feOffset dy="4"/>
<feGaussianBlur stdDeviation="2"/>
<feComposite in2="hardAlpha" operator="out"/>
<feColorMatrix type="matrix" values="0 0 0 0 0 0 0 0 0 0 0 0 0 0 0 0 0 0 0.25 0"/>
<feBlend mode="normal" in2="BackgroundImageFix" result="effect1_dropShadow_1_220"/>
<feBlend mode="normal" in="SourceGraphic" in2="effect1_dropShadow_1_220" result="shape"/>
</filter>
<filter id="filter22_d_1_220" x="216.688" y="232.878" width="59.1962" height="53.3807" filterUnits="userSpaceOnUse" color-interpolation-filters="sRGB">
<feFlood flood-opacity="0" result="BackgroundImageFix"/>
<feColorMatrix in="SourceAlpha" type="matrix" values="0 0 0 0 0 0 0 0 0 0 0 0 0 0 0 0 0 0 127 0" result="hardAlpha"/>
<feOffset dy="4"/>
<feGaussianBlur stdDeviation="2"/>
<feComposite in2="hardAlpha" operator="out"/>
<feColorMatrix type="matrix" values="0 0 0 0 0 0 0 0 0 0 0 0 0 0 0 0 0 0 0.25 0"/>
<feBlend mode="normal" in2="BackgroundImageFix" result="effect1_dropShadow_1_220"/>
<feBlend mode="normal" in="SourceGraphic" in2="effect1_dropShadow_1_220" result="shape"/>
</filter>
</defs>
</svg>
